<svg xmlns="http://www.w3.org/2000/svg" viewBox="0 0 840.94 348.96"><defs><style>.cls-1,.cls-3{fill:#0e71b8;}.cls-2{fill:#e3001f;}.cls-3{fill-rule:evenodd;}</style></defs><g id="Group"><path class="cls-1" d="M527.14,336.37v-18.2a22.48,22.48,0,0,0-2.51-.09,32,32,0,0,0-12.49,2.71c-1.55.58-2.13.87-2.71-.39l-2.23-6.1c-.48-1.07-.39-1.65.77-2.32a36.18,36.18,0,0,1,16.85-4.27,35.56,35.56,0,0,1,7.26.59c5.62,1.06,7.26,3.58,7.26,9.49v22.55a3.53,3.53,0,0,1-1.84,3.49c-7.26,4.45-18.1,5-22.46,5-19.46,0-29.72-11.62-29.72-34.37,0-21.39,11.23-35.43,30.5-35.43,5.9,0,12.68.77,19,4.06,1.07.49,1.46,1.07.58,2.81l-2.61,6c-.58,1.25-.87,1.54-2.32,1.06a40.49,40.49,0,0,0-14.33-2.71c-13.46,0-18.49,11.42-18.49,24.4,0,13.26,3.77,23.43,18.58,23.43A31.37,31.37,0,0,0,527.14,336.37Z"/><path class="cls-1" d="M616,345.76a1.45,1.45,0,0,1-1.26,2h-8.61c-1,0-2.23-.1-2.71-1.55l-4.65-17.91c-1.94-6.88-5.13-8.81-12-8.81H575.33v26.23c0,1.75-.48,2-2.23,2h-7.55c-1.45,0-2.22-.39-2.22-2V285.35c0-3.77,1.35-5.52,5.42-5.52h22.84c13,0,21.4,7.94,21.4,19.56,0,7.55-4.07,13.55-10,16v.39c4.55,1.94,6.39,5.33,7.65,10Zm-25.56-55.28h-15v19.17h14.33c7.84,0,11.23-4.35,11.23-9.68C601,296.1,599.15,290.48,590.43,290.48Z"/><path class="cls-1" d="M661.27,348.86c-19.36,0-29.14-12.2-29.14-34.85,0-22.17,12.2-35.05,29.43-35.05,19.46,0,29.53,13.17,29.53,34.66C691.09,336,681.22,348.86,661.27,348.86Zm.49-59.25c-11.81,0-17.53,10.85-17.53,23.92,0,14.9,4.07,24.68,17.33,24.68s17.33-11.62,17.33-24.2C678.89,301.13,675.8,289.61,661.76,289.61Z"/><path class="cls-1" d="M764.74,338.41c0,4.93-1.83,8.22-7.64,9.39A87.34,87.34,0,0,1,741.9,349c-21.79,0-30.11-7.17-30.11-30.21l-.1-36.69c0-1.65.77-2,2.23-2h7.55c1.74,0,2.23.29,2.23,2V319c0,13.26,3,19.55,18.2,19.55a62.86,62.86,0,0,0,11.13-1V282.06c0-1.65.68-2,2.23-2h7.55c1.74,0,1.93.29,1.93,2Z"/><path class="cls-1" d="M800.09,345.76c0,1.75-.49,2-2.23,2H790.6c-1.45,0-2.23-.39-2.23-2V285.35c0-3.58,1.36-5.52,5.43-5.52h23c13,0,21.78,8.52,21.78,20.72,0,6.88-3.39,21.4-22.75,21.4H800.09Zm14.42-55.28H800.18V312h14.53c8.13,0,11.71-4.46,11.71-10.65C826.42,296.87,824.1,290.48,814.51,290.48Z"/></g><g id="Südzucker"><path class="cls-2" d="M463.86,129.37C448.34,84,403.74,56,360.87,56,312.24,56,275,75.32,246.76,107.35c-.46.53-1.41,1.69-2.34,2.85a73.47,73.47,0,0,0-4.67,7.14c-5.1,9.88-4.18,15-.42,15,3.4,0,6-7.24,21.38-20.69C295,78.8,347.85,66.94,393.16,89.37c21.64,10.7,36.6,27.42,44.35,46.32,1.15,2.61,1.93,4.32,3.1,4.32.32,0,3.69,0,5.2,0,4.26,0,9.58-.28,12.64-1.24,5.78-1.83,5.88-4.89,5.91-7.05A13.54,13.54,0,0,0,463.86,129.37Z"/><path class="cls-2" d="M399.83,260.21c-5.4-.45-18.55-.06-22.6-.06a20.41,20.41,0,0,0-4.74.42,5.84,5.84,0,0,0-.9.34,294.37,294.37,0,0,1-29.46,14.47l-1.57.73.17-.13c-1.63.69-3.26,1.37-4.92,2-35.34,14.44-58.75,20-87.5,22.44-10.89.93-33.63,0-39.08,1.51-3.66,1-5.37,2.4-1.28,4.1,5,2.07,7.88,5,39.18,5.63,18.7.38,36.17-.6,78.41-12.84,22.49-6.52,48.69-15.19,70.52-27,2.69-1.51,4.58-2.58,6-3.38,1.63-1,3.23-1.95,4.8-2.95C410.52,262.67,405,260.64,399.83,260.21Z"/><path class="cls-1" d="M399.92,150.43a2.17,2.17,0,0,1,2.19,2.2l.06,42a103.37,103.37,0,0,0,1.27,14.27,38.09,38.09,0,0,0,1.59,5.75,22.84,22.84,0,0,0,4.23,7.12,22.43,22.43,0,0,0,5.95,4.71,22.7,22.7,0,0,0,10,2.56l.45,0c.68,0,1.63.1,2.49.1a59,59,0,0,0,12.39-1.26l.32-.08.51-.11v-.52l0-.87V150.44h15.18a2.18,2.18,0,0,1,2,2.19v78.06a13.57,13.57,0,0,1-1.86,7.29c-1.16,1.88-3.46,3.28-6.8,4.16a44.22,44.22,0,0,1-5.76,1c-2.11.22-4.27.38-6.43.47s-4.28.16-6.1.2-3.4.07-4.59.07a41.77,41.77,0,0,1-14.23-2h-.05a35.51,35.51,0,0,1-12.4-6.45,38.14,38.14,0,0,1-10-12.62,54.5,54.5,0,0,1-5.16-19.45c-.17-2.14-.57-7.77-.57-13.77l-.05-35.69v-3.44h15.37"/><path class="cls-1" d="M105.78,150.43a2.17,2.17,0,0,1,2.19,2.2l.06,42a103.37,103.37,0,0,0,1.27,14.27,38.09,38.09,0,0,0,1.59,5.75,22.84,22.84,0,0,0,4.23,7.12,22.43,22.43,0,0,0,5.95,4.71A22.7,22.7,0,0,0,131,229l.44,0c.69,0,1.63.1,2.5.1a58.93,58.93,0,0,0,12.38-1.26l.32-.08.51-.11V150.44h15.17a2.19,2.19,0,0,1,2,2.19v78.06a13.57,13.57,0,0,1-1.86,7.29c-1.17,1.88-3.46,3.28-6.81,4.16a43.64,43.64,0,0,1-5.76,1c-2.1.22-4.26.38-6.43.47s-4.27.16-6.09.2-3.4.07-4.59.07a41.72,41.72,0,0,1-14.23-2h0a35.65,35.65,0,0,1-12.41-6.45,38.15,38.15,0,0,1-10-12.62A54.3,54.3,0,0,1,91,203.34c-.17-2.14-.58-7.77-.58-13.77l0-35.69v-3.44h15.37"/><path class="cls-3" d="M822.77,1.05c-5.08,1.91-5.51,6.62-9.14,10.16-10.85,10.63-21.36,12.67-34.69,18.61-43.69,19.47-61.8,26.81-94.64,36.68C645,78.3,606.21,92,566.55,102.34c-19,5-38.21,9.49-57.57,12.59-4.69.76-18.68-1.09-27.41-.4,4.25-3,8.53-7.42,11.8-9.36,8-4.75,16.86-8.08,25.36-11.6,19.75-8.19,39.79-15.09,60-21.82,21.43-7.13,43.39-13.44,64.31-22.26,11.05-4.66,73.2-25.08,70.2-44.12-1-6.49-22.67-4.86-25.75-.09-4.26,6.51-12.06,11.28-17.67,16.16-18,15.66-44.51,23.33-66,31.44-13.16,5-99.2,27.48-127.35,46.34,1.09-4.42,2.17-10,5.36-15.23,14-22.82,50.16-50.43,93.82-60.18,7.36-1.65,45.51-7.43,38.52-18.63-5.55-9-40.83,5-47.87,7.72a278.36,278.36,0,0,0-53.38,26.79c-8.07,5.26-66.33,49-53.06,62.48h0s1.77,3.27,2.19,3.85c.75,1,2.74,5.54,5.33,10.16,2.2,3.94,1.87,8,10.37,11.5s22.48,1.87,22.48,1.87h0c15.46-1.17,33.21-8.46,43.3-11.23C588.7,106,634,94.15,678.91,80.84c38.36-11.37,74.78-21.43,115-34.77,15.92-5.29,29-8.83,41.87-20.67C847.25,14.85,838.18-4.75,822.77,1.05Z"/><path class="cls-1" d="M122.69,146.05H110.58a.35.35,0,0,1-.35-.35V133.59a.32.32,0,0,1,.35-.35h12.11a.34.34,0,0,1,.35.35V145.7A.34.34,0,0,1,122.69,146.05Z"/><path class="cls-1" d="M145.45,146.05H133.34c-.33,0-.35-.35-.35-.35V133.59a.33.33,0,0,1,.35-.35h12.11a.34.34,0,0,1,.35.35V145.7A.34.34,0,0,1,145.45,146.05Z"/><path class="cls-1" d="M831.94,214a40.84,40.84,0,0,0-3-8.15,11.35,11.35,0,0,0-5.83-5.12l-.48-.21L818.08,199l2-.6,1.17-.45.64-.34a21,21,0,0,0,8.76-8.76,26,26,0,0,0,3.08-12.33c0-7.93-2.56-14.32-7.6-19s-12.42-7.07-21.83-7.07H772.24c-1.84,0-3.66,0-5-.05l-1.67,0c-.1,0-.1.09-.1.13v91.76c0,.1.06.11.09.11v.31h0v-.31c.23,0,.57,0,1.67,0h14.44a6.47,6.47,0,0,1,1.13,0c.07,0,.07,0,.07-.11V204.08h15c4.32,0,7.79.95,10.31,2.83s4.45,5.23,5.69,9.91l5.94,23.86A2.37,2.37,0,0,0,822,242.4H838.1a8.39,8.39,0,0,1,.85,0h.11a.16.16,0,0,0,.11-.07c0-.21-.26-1-.34-1.34Zm-19.09-27.24c-2.32,2.27-5.68,3.42-10,3.42H783v-25h20.25a15.77,15.77,0,0,1,6.34,1.13,11,11,0,0,1,4.07,2.94,10.76,10.76,0,0,1,2.08,3.92,14.93,14.93,0,0,1,.59,4C816.36,180.76,815.18,184.47,812.85,186.74Z"/><path class="cls-1" d="M32.91,148.54c2.46,0,5.08.13,7.78.4a78.7,78.7,0,0,1,8,1.19,76.81,76.81,0,0,1,7.5,1.93,4.58,4.58,0,0,1,3.28,3.58c.36,1.21,1.37,7.45,2.13,12.72a2.05,2.05,0,0,1,0,.79h0c-1.56-.5-3.08-.94-3.61-1.07-4.28-1.27-8.59-2.34-12.83-3.15a63.93,63.93,0,0,0-12.2-1.26c-4.44,0-7.56.85-9.52,2.6a8.6,8.6,0,0,0-2,10.6,11.57,11.57,0,0,0,3.09,3.43,29.16,29.16,0,0,0,5.18,3.1c2.06,1,4.64,2.13,7.66,3.32,4.56,1.78,8.81,3.62,12.65,5.45a43.72,43.72,0,0,1,9.61,6.07A24.73,24.73,0,0,1,65.7,206a23.75,23.75,0,0,1,2.2,10.66,26.77,26.77,0,0,1-2.41,11.76,23.07,23.07,0,0,1-6.71,8.23,30.13,30.13,0,0,1-10.62,5,54.07,54.07,0,0,1-14,1.71c-2.83,0-5.83-.15-8.93-.46A83.15,83.15,0,0,1,16,241.42a70,70,0,0,1-9-2.58A31,31,0,0,1,2.86,237C2.65,236.93.8,236,.8,234.26c0-.28-.66-11.35-.79-13.58,0-.66.08-.83.12-.83h0a1,1,0,0,1,.34.08l2.19.81c2.76,1,6.93,2.55,8.52,3.11,2.22.79,4.53,1.49,6.86,2.08s4.74,1.11,7.2,1.53a44.28,44.28,0,0,0,7.4.63,28,28,0,0,0,7.52-.88,16.24,16.24,0,0,0,5.14-2.36,8.54,8.54,0,0,0,3-3.71,11.35,11.35,0,0,0,.8-4.22,10.34,10.34,0,0,0-.9-4.36,12.13,12.13,0,0,0-2.83-3.73,21.49,21.49,0,0,0-5-3.25c-2-1-4.48-2-7.41-3.12-4.73-1.78-9.07-3.63-12.89-5.5a49.37,49.37,0,0,1-9.72-6.11,23.51,23.51,0,0,1-6-7.22,19.63,19.63,0,0,1-2.05-9.2,27.61,27.61,0,0,1,1.86-10.12,22.32,22.32,0,0,1,5.5-8.15,26.51,26.51,0,0,1,9.45-5.55,41.77,41.77,0,0,1,13.83-2.07m26.54,7.1c.36,1.21,1.37,7.45,2.13,12.72"/><path class="cls-1" d="M195.8,242.42h33.33c7.46,0,14-1.34,19.31-4a33.45,33.45,0,0,0,12.36-10.15,40.1,40.1,0,0,0,6.65-14.73,77.69,77.69,0,0,0,2-17.67,68.74,68.74,0,0,0-2.25-17.7A38.56,38.56,0,0,0,260,163.79a35,35,0,0,0-12.84-9.71c-5.28-2.42-11.85-3.65-19.53-3.65H195.8Zm17.3-15.66V165.14h12.26a29.81,29.81,0,0,1,12.66,2.4,20.91,20.91,0,0,1,8.18,6.65,25.48,25.48,0,0,1,4.14,9.8,59.05,59.05,0,0,1,1.12,11.88,64.08,64.08,0,0,1-1.11,12.33,26.76,26.76,0,0,1-4.07,10.06,20.21,20.21,0,0,1-8.05,6.74,29,29,0,0,1-12.46,2.4H213.1Z"/><path class="cls-1" d="M590.23,150.43h3.1c.48,0,.66,0,.75,0a2.06,2.06,0,0,1,2.17,2.19v41.16l1.14-1.42,1.87-2.32.51-.65,12.76-16.15,16.93-21.13a4.25,4.25,0,0,1,1.7-1.27,11.94,11.94,0,0,1,3.42-.32H651.9l-26.74,31.73-.46.55-.28.33.21.39.34.62,31.62,57.11v0h0l.13.25v0l0,0a3.52,3.52,0,0,1,.39.81,1.46,1.46,0,0,1-.34,0H638.39a2,2,0,0,1-1.65-.73,1.59,1.59,0,0,0-.13-.13,12.31,12.31,0,0,1-1-1.61l-21.86-40.59-.72-1.34-.45-.83-.6.73-1,1.16-14.39,17.24-.24.29-.15.18v25.63H579.09c0-.17,0-.39,0-.66V150.43h11.14"/><path class="cls-1" d="M737.8,150.43v14.73h-46l0,22h41.7v13.68h-41.7v3l.41,5.36c0,12.25,7.35,18.72,21.26,18.72h24.82c.63,0,.77,0,.88,0h.18v14.69l-33.74,0c-9.3,0-16.6-2.79-21.72-8.29-6.28-6.76-9.46-17.8-9.46-32.83V173.93c0-1.56,0-23.5,0-23.5H737.8"/><path class="cls-1" d="M527.38,149.18a78.58,78.58,0,0,1,13.34,1.13,38.53,38.53,0,0,1,8.8,2.67c3.61,1.83,4.4,3.76,2.94,7.12s-3,6.71-3,6.75c-.27.63-.58,1.32-.71,1.6-.29-.1-.8-.27-1.28-.45a72.3,72.3,0,0,0-9.35-2.72,48.14,48.14,0,0,0-9.75-.92,21.67,21.67,0,0,0-10.69,2.6,23.19,23.19,0,0,0-7.77,7,32.18,32.18,0,0,0-4.68,10.35,45.35,45.35,0,0,0-1.56,12.77c.52,21,13.53,26.89,17.8,28.82l.71.33a25.22,25.22,0,0,0,9.63,2.28h.15A37.59,37.59,0,0,0,541,227l2.95-1c2.3-.76,4.46-1.48,6.51-2.24l1.47-.51h0l.07.14a10.88,10.88,0,0,0,.58,1.16s2.25,4.83,3.72,7.88a4.31,4.31,0,0,1-1.67,5.63,63.78,63.78,0,0,1-8.69,3.49,44.78,44.78,0,0,1-14.34,2.55,49,49,0,0,1-18.65-3.22c-5.48-2.25-23.67-11.52-27.43-35.92a45.92,45.92,0,0,1-.33-7v-.79a59.43,59.43,0,0,1,3.11-19.75,45.71,45.71,0,0,1,8.6-15.12,37.26,37.26,0,0,1,13.24-9.65,42.79,42.79,0,0,1,17.25-3.4"/><path class="cls-1" d="M354.21,150.34c2.47,0,4.21.42,5.16,1.23s1.32,2.41,1.32,4.84v4.48a9.92,9.92,0,0,1-1.28,5,32.73,32.73,0,0,1-3.1,4.58l-44.25,53.76-2.22,2.65-.89,1.06h1.38l3.29,0h52.77l-.09.34-3.86,11a4.22,4.22,0,0,1-4.06,3H292.14c-2.83,0-4.42,0-4.77-.29-.84-1-1.28-2.15-1.24-4.39a19.86,19.86,0,0,1,2.76-9,30.62,30.62,0,0,1,3-4.49l45.71-55.81,2-2.51.85-1.05h-1.35l-3,0H291.86c.08-.27.2-.59.3-.85l3.69-10.73a4.33,4.33,0,0,1,3.88-2.74h54.48"/></g></svg>