<?xml version="1.0" encoding="UTF-8"?>
<svg width="220px" height="63px" viewBox="0 0 220 63" version="1.1" xmlns="http://www.w3.org/2000/svg" xmlns:xlink="http://www.w3.org/1999/xlink">
    <!-- Generator: Sketch 48.2 (47327) - http://www.bohemiancoding.com/sketch -->
    <title>biovegan-logo</title>
    <desc>Created with Sketch.</desc>
    <defs></defs>
    <g id="Header" stroke="none" stroke-width="1" fill="none" fill-rule="evenodd" transform="translate(-390.000000, -17.000000)">
        <g fill-rule="nonzero" id="biovegan-logo">
            <g transform="translate(390.000000, 17.000000)">
                <path d="M215.470588,26.3676471 L214.823529,26.3676471 L214.823529,27.8235294 L215.632353,27.8235294 C216.117647,27.8235294 216.279412,27.8235294 216.602941,27.6617647 C216.764706,27.5 216.926471,27.3382353 216.926471,27.1764706 C216.926471,26.8529412 216.764706,26.6911765 216.602941,26.5294118 C216.279412,26.3676471 215.955882,26.3676471 215.470588,26.3676471 Z M215.632353,25.7205882 C216.279412,25.7205882 216.764706,25.8823529 217.088235,26.0441176 C217.411765,26.2058824 217.573529,26.5294118 217.573529,27.0147059 C217.573529,27.3382353 217.411765,27.6617647 217.25,27.8235294 C217.088235,27.9852941 216.764706,28.1470588 216.441176,28.3088235 L217.411765,30.4117647 L216.441176,30.4117647 L215.470588,28.4705882 L214.661765,28.4705882 L214.661765,30.4117647 L213.852941,30.4117647 L213.852941,25.7205882 L215.632353,25.7205882 Z M219.191176,28.1470588 C219.191176,27.6617647 219.029412,27.1764706 218.867647,26.6911765 C218.705882,26.2058824 218.382353,25.8823529 218.058824,25.5588235 C217.735294,25.2352941 217.411765,24.9117647 216.926471,24.75 C216.441176,24.5882353 216.117647,24.4264706 215.470588,24.4264706 C214.985294,24.4264706 214.5,24.5882353 214.176471,24.75 C213.691176,24.9117647 213.367647,25.2352941 213.044118,25.5588235 C212.720588,25.8823529 212.397059,26.3676471 212.235294,26.6911765 C212.073529,27.1764706 211.911765,27.5 211.911765,27.9852941 C211.911765,28.4705882 212.073529,28.9558824 212.235294,29.2794118 C212.397059,29.7647059 212.720588,30.0882353 213.044118,30.4117647 C213.367647,30.7352941 213.691176,31.0588235 214.176471,31.2205882 C214.661765,31.3823529 214.985294,31.5441176 215.470588,31.5441176 C215.955882,31.5441176 216.441176,31.3823529 216.764706,31.2205882 C217.25,31.0588235 217.573529,30.7352941 217.897059,30.4117647 C218.220588,30.0882353 218.544118,29.7647059 218.705882,29.2794118 C219.029412,29.1176471 219.191176,28.6323529 219.191176,28.1470588 Z M215.632353,24.1029412 C216.117647,24.1029412 216.764706,24.2647059 217.25,24.4264706 C217.735294,24.5882353 218.220588,24.9117647 218.544118,25.3970588 C218.867647,25.7205882 219.191176,26.2058824 219.352941,26.6911765 C219.514706,27.1764706 219.676471,27.6617647 219.676471,28.3088235 C219.676471,28.7941176 219.514706,29.4411765 219.352941,29.9264706 C219.191176,30.4117647 218.867647,30.8970588 218.544118,31.2205882 C218.220588,31.5441176 217.735294,31.8676471 217.25,32.1911765 C216.764706,32.3529412 216.279412,32.5147059 215.632353,32.5147059 C215.147059,32.5147059 214.5,32.3529412 214.014706,32.1911765 C213.529412,32.0294118 213.044118,31.7058824 212.720588,31.2205882 C212.397059,30.8970588 212.073529,30.4117647 211.911765,29.9264706 C211.75,29.4411765 211.588235,28.9558824 211.588235,28.3088235 C211.588235,27.8235294 211.75,27.1764706 211.911765,26.6911765 C212.073529,26.2058824 212.397059,25.7205882 212.882353,25.3970588 C213.205882,25.0735294 213.691176,24.75 214.176471,24.5882353 C214.5,24.1029412 214.985294,24.1029412 215.632353,24.1029412 Z" id="Shape" fill="#EE7100"></path>
                <path d="M60.8235294,45.4558824 C60.8235294,48.5294118 60.1764706,50.7941176 58.8823529,52.0882353 C57.5882353,53.5441176 55.6470588,54.1911765 52.8970588,54.1911765 C49.9852941,54.1911765 48.0441176,53.5441176 46.75,52.25 C45.6176471,50.9558824 44.9705882,48.8529412 44.9705882,45.9411765 C44.9705882,41.5735294 45.7794118,37.8529412 47.3970588,34.7794118 C49.0147059,31.7058824 50.7941176,30.0882353 52.8970588,30.0882353 C54.8382353,30.0882353 56.6176471,31.5441176 58.2352941,34.6176471 C60.0147059,37.8529412 60.8235294,41.4117647 60.8235294,45.4558824 M68.1029412,48.2058824 C68.1029412,44.8088235 67.6176471,41.5735294 66.8088235,38.5 C66,35.4264706 64.7058824,32.6764706 63.0882353,30.25 C61.4705882,27.8235294 59.8529412,26.0441176 58.2352941,24.9117647 C56.6176471,23.7794118 54.8382353,23.1323529 53.0588235,23.1323529 C51.1176471,23.1323529 49.3382353,23.7794118 47.5588235,24.9117647 C45.7794118,26.0441176 44.3235294,27.6617647 42.8676471,29.9264706 C41.0882353,32.6764706 39.7941176,35.5882353 38.8235294,38.9852941 C37.8529412,42.3823529 37.3676471,45.6176471 37.3676471,49.0147059 C37.3676471,53.8676471 38.5,57.2647059 40.7647059,59.3676471 C43.0294118,61.4705882 46.5882353,62.6029412 51.6029412,62.6029412 C57.4264706,62.6029412 61.6323529,61.4705882 64.2205882,59.2058824 C66.8088235,57.1029412 68.1029412,53.3823529 68.1029412,48.2058824" id="Shape" fill="#EE7100"></path>
                <path d="M18.7647059,51.4411765 C18.7647059,53.0588235 18.1176471,54.1911765 16.9852941,55 C15.8529412,55.8088235 14.0735294,56.2941176 11.9705882,56.2941176 C10.0294118,56.2941176 8.57352941,55.8088235 7.92647059,54.6764706 C7.11764706,53.5441176 6.79411765,51.6029412 6.79411765,48.8529412 C6.79411765,48.2058824 6.95588235,47.8823529 7.11764706,47.5588235 C7.27941176,47.2352941 7.76470588,46.9117647 8.25,46.5882353 L12.4558824,44.1617647 C12.6176471,44 12.7794118,44 12.9411765,44 C13.1029412,43.6764706 13.2647059,43.6764706 13.2647059,43.6764706 C14.0735294,43.6764706 15.2058824,44.6470588 16.6617647,46.4264706 C17.9558824,48.2058824 18.7647059,49.8235294 18.7647059,51.4411765 M16.6617647,32.1911765 C16.6617647,32.8382353 16.3382353,33.6470588 15.8529412,34.4558824 C15.3676471,35.2647059 14.3970588,36.2352941 13.1029412,37.3676471 C11.8088235,38.5 10.6764706,39.4705882 9.70588235,39.9558824 C8.73529412,40.4411765 8.08823529,40.7647059 7.44117647,40.7647059 C6.95588235,40.7647059 6.79411765,40.6029412 6.47058824,40.2794118 C6.30882353,39.9558824 6.14705882,39.3088235 6.14705882,38.6617647 C6.14705882,35.4264706 6.63235294,33 7.60294118,31.7058824 C8.57352941,30.4117647 10.1911765,29.7647059 12.6176471,29.7647059 C13.9117647,29.7647059 14.8823529,29.9264706 15.5294118,30.4117647 C16.3382353,30.7352941 16.6617647,31.3823529 16.6617647,32.1911765 M20.0588235,42.0588235 C19.0882353,41.0882353 18.4411765,40.4411765 18.4411765,39.9558824 C18.4411765,39.6323529 18.7647059,38.9852941 19.7352941,38.1764706 C20.5441176,37.3676471 21.1911765,36.5588235 21.5147059,36.0735294 C22.1617647,35.2647059 22.6470588,34.2941176 22.9705882,33.3235294 C23.2941176,32.3529412 23.4558824,31.5441176 23.4558824,30.5735294 C23.4558824,28.3088235 22.8088235,26.6911765 21.3529412,25.5588235 C19.8970588,24.4264706 17.9558824,23.7794118 15.2058824,23.7794118 L3.39705882,23.7794118 C2.58823529,23.7794118 2.10294118,24.1029412 1.61764706,24.5882353 C1.29411765,25.2352941 0.970588235,26.3676471 0.647058824,28.1470588 C0.323529412,30.0882353 0.161764706,32.5147059 0,35.2647059 C0,38.3382353 0,41.4117647 0,44.4852941 C0,47.7205882 0.161764706,50.6323529 0.161764706,53.5441176 C0.323529412,56.2941176 0.485294118,58.5588235 0.808823529,60.1764706 C0.970588235,61.1470588 1.13235294,61.7941176 1.45588235,61.9558824 C1.61764706,62.1176471 2.10294118,62.2794118 2.58823529,62.2794118 L14.8823529,62.2794118 C16.8235294,62.2794118 18.4411765,62.1176471 19.4117647,62.1176471 C20.3823529,61.9558824 21.1911765,61.6323529 21.8382353,61.3088235 C23.1323529,60.6617647 24.1029412,59.5294118 24.75,58.2352941 C25.3970588,56.9411765 25.7205882,55.3235294 25.7205882,53.3823529 C25.7205882,51.7647059 25.3970588,50.1470588 24.9117647,48.8529412 C24.4264706,47.3970588 23.6176471,46.1029412 22.4852941,44.8088235 C21.8382353,44 21.0294118,43.1911765 20.0588235,42.0588235" id="Shape" fill="#EE7100"></path>
                <path d="M92.8529412,23.9411765 C93.3382353,23.9411765 93.6617647,23.9411765 93.8235294,24.1029412 C93.9852941,24.2647059 94.1470588,24.4264706 94.3088235,24.75 C94.7941176,25.7205882 95.1176471,27.1764706 95.4411765,29.1176471 C95.7647059,31.0588235 95.9264706,33 95.9264706,35.1029412 C95.9264706,39.1470588 95.4411765,43.0294118 94.3088235,46.5882353 C93.1764706,50.1470588 91.7205882,53.2205882 89.6176471,55.9705882 C88.1617647,57.9117647 86.7058824,59.5294118 85.25,60.8235294 C83.7941176,62.1176471 82.6617647,62.7647059 82.1764706,62.7647059 C81.5294118,62.7647059 80.5588235,62.1176471 79.1029412,60.9852941 C77.6470588,59.6911765 76.3529412,58.2352941 75.0588235,56.4558824 C73.1176471,53.5441176 71.6617647,50.4705882 70.6911765,46.9117647 C69.7205882,43.5147059 69.2352941,39.4705882 69.2352941,34.7794118 C69.2352941,30.7352941 69.3970588,27.9852941 69.8823529,26.3676471 C70.2058824,24.75 71.0147059,23.9411765 71.9852941,23.9411765 L77.8088235,23.9411765 C78.1323529,23.9411765 78.2941176,23.9411765 78.6176471,24.1029412 C78.7794118,24.2647059 78.9411765,24.4264706 78.9411765,24.5882353 C78.9411765,24.5882353 78.6176471,26.2058824 77.8088235,29.1176471 C77,32.1911765 76.6764706,35.1029412 76.6764706,37.8529412 C76.6764706,41.8970588 77.3235294,45.4558824 78.9411765,48.6911765 C80.3970588,51.9264706 81.6911765,53.7058824 82.9852941,53.7058824 C84.4411765,53.7058824 86.0588235,51.9264706 87.6764706,48.3676471 C89.2941176,44.8088235 90.1029412,40.6029412 90.1029412,36.0735294 C90.1029412,33.6470588 89.6176471,31.2205882 88.6470588,28.6323529 C87.6764706,26.0441176 87.1911765,24.75 87.1911765,24.5882353 C87.1911765,24.4264706 87.3529412,24.2647059 87.5147059,24.1029412 C87.6764706,23.9411765 88,23.9411765 88.4852941,23.9411765 L92.8529412,23.9411765 Z" id="Shape" fill="#EE7100"></path>
                <path d="M120.029412,62.1176471 L99.9705882,62.1176471 C99.3235294,62.1176471 98.8382353,61.9558824 98.5147059,61.7941176 C98.3529412,61.6323529 98.1911765,60.9852941 98.0294118,60.0147059 C97.8676471,59.3676471 97.8676471,57.5882353 97.8676471,55 C97.8676471,52.4117647 97.7058824,49.5 97.7058824,46.2647059 C97.7058824,42.8676471 97.8676471,39.4705882 98.1911765,36.2352941 C98.5147059,33 99,30.0882353 99.4852941,27.8235294 C99.8088235,26.2058824 100.132353,25.2352941 100.455882,24.75 C100.779412,24.2647059 101.102941,23.9411765 101.588235,23.9411765 L119.705882,23.9411765 C120.191176,23.9411765 120.514706,23.9411765 120.676471,24.1029412 C120.838235,24.2647059 121,24.2647059 121,24.5882353 C121,24.5882353 121,24.75 121,24.75 C121,24.75 121,24.9117647 121,24.9117647 L118.411765,30.7352941 C118.25,31.0588235 118.088235,31.2205882 118.088235,31.3823529 C117.926471,31.5441176 117.926471,31.5441176 117.764706,31.5441176 C117.602941,31.5441176 117.441176,31.3823529 117.117647,31.2205882 C115.014706,30.0882353 113.073529,29.4411765 111.132353,29.4411765 C109.029412,29.4411765 107.411765,30.0882353 106.279412,31.2205882 C105.147059,32.3529412 104.5,33.9705882 104.5,36.0735294 C104.5,36.7205882 104.661765,37.3676471 104.985294,37.8529412 C105.308824,38.3382353 105.632353,38.5 106.117647,38.5 C106.602941,38.5 107.735294,38.1764706 109.514706,37.3676471 C111.294118,36.5588235 112.75,36.2352941 114.044118,36.2352941 C115.338235,36.2352941 116.147059,36.2352941 116.470588,36.3970588 C116.794118,36.5588235 116.955882,36.7205882 116.955882,37.0441176 C116.955882,37.0441176 116.955882,37.2058824 116.955882,37.2058824 C116.955882,37.2058824 116.955882,37.3676471 116.794118,37.5294118 L114.691176,43.5147059 C114.691176,43.6764706 114.529412,43.6764706 114.529412,43.8382353 C114.367647,44.1617647 114.205882,44.3235294 114.044118,44.3235294 C114.044118,44.3235294 113.558824,44.1617647 112.588235,43.8382353 C111.617647,43.6764706 110.808824,43.5147059 110,43.5147059 C108.382353,43.5147059 106.926471,44.1617647 105.955882,45.2941176 C104.823529,46.4264706 104.338235,47.8823529 104.338235,49.6617647 C104.338235,51.7647059 104.823529,53.3823529 105.955882,54.5147059 C107.088235,55.6470588 108.544118,56.2941176 110.485294,56.2941176 C112.102941,56.2941176 113.720588,55.8088235 115.5,54.6764706 C117.279412,53.7058824 118.088235,53.0588235 118.088235,53.0588235 C118.25,53.0588235 118.411765,53.0588235 118.573529,53.2205882 C118.735294,53.3823529 118.897059,53.5441176 118.897059,53.7058824 L121.970588,60.5 C121.970588,60.6617647 122.132353,60.6617647 122.132353,60.8235294 C122.132353,60.9852941 122.132353,60.9852941 122.132353,61.1470588 C122.132353,61.4705882 121.970588,61.7941176 121.647059,61.9558824 C121.161765,62.1176471 120.676471,62.1176471 120.029412,62.1176471" id="Shape" fill="#EE7100"></path>
                <path d="M146.397059,41.8970588 L148.014706,50.4705882 C148.176471,50.9558824 148.176471,51.4411765 148.176471,51.9264706 C148.176471,52.4117647 148.176471,52.7352941 148.176471,53.0588235 C148.176471,55.8088235 147.205882,58.0735294 145.102941,59.6911765 C143,61.3088235 140.088235,62.1176471 136.529412,62.1176471 C131.514706,62.1176471 127.632353,60.5 124.720588,57.2647059 C121.808824,54.0294118 120.352941,49.8235294 120.352941,44.3235294 C120.352941,38.0147059 122.132353,32.8382353 125.529412,28.7941176 C128.926471,24.75 133.294118,22.6470588 138.470588,22.6470588 C141.058824,22.6470588 143.161765,23.1323529 144.779412,24.2647059 C146.397059,25.3970588 147.044118,26.8529412 147.044118,28.6323529 C147.044118,29.9264706 146.720588,30.8970588 145.911765,31.7058824 C145.102941,32.5147059 144.132353,33 143,33 C142.838235,33 142.514706,33 142.352941,33 C142.029412,33 141.867647,32.8382353 141.544118,32.8382353 L141.544118,32.6764706 C141.544118,31.8676471 141.220588,31.2205882 140.411765,30.7352941 C139.764706,30.25 138.632353,29.9264706 137.5,29.9264706 C134.75,29.9264706 132.485294,31.2205882 130.705882,33.8088235 C128.926471,36.3970588 127.955882,39.6323529 127.955882,43.6764706 C127.955882,47.0735294 128.602941,49.6617647 130.058824,51.6029412 C131.352941,53.5441176 133.294118,54.5147059 135.558824,54.5147059 C137.338235,54.5147059 138.632353,54.0294118 139.764706,53.0588235 C140.897059,52.0882353 141.382353,50.9558824 141.382353,49.3382353 C141.382353,47.8823529 140.411765,46.4264706 138.470588,45.1323529 C137.985294,44.8088235 137.661765,44.6470588 137.661765,44.4852941 C137.661765,44.3235294 137.661765,44.3235294 137.823529,44.1617647 C137.823529,44 137.985294,44 137.985294,44 L145.102941,40.9264706 C145.426471,40.7647059 145.588235,40.7647059 145.75,40.6029412 C146.073529,40.6029412 146.235294,40.7647059 146.397059,40.9264706 C146.235294,41.0882353 146.397059,41.4117647 146.397059,41.8970588" id="Shape" fill="#EE7100"></path>
                <path d="M188.455882,62.1176471 L183.764706,62.1176471 C183.279412,62.1176471 182.794118,61.9558824 182.632353,61.6323529 C182.470588,61.3088235 182.308824,60.6617647 182.147059,59.8529412 C181.985294,58.8823529 181.985294,56.9411765 181.823529,54.0294118 C181.661765,51.1176471 181.661765,48.0441176 181.661765,44.6470588 C181.661765,39.9558824 181.661765,36.2352941 181.823529,33.4852941 C181.985294,30.7352941 182.147059,28.4705882 182.308824,26.8529412 C182.308824,26.6911765 182.308824,26.3676471 182.470588,26.0441176 C182.632353,24.75 183.117647,24.1029412 183.602941,24.1029412 L188.132353,24.1029412 C189.102941,24.1029412 189.911765,24.4264706 190.558824,25.0735294 C191.367647,25.7205882 192.5,27.3382353 194.117647,29.6029412 C196.058824,32.5147059 198,35.5882353 199.779412,38.9852941 C201.558824,42.3823529 202.691176,44.1617647 202.852941,44.1617647 C203.014706,44.1617647 203.176471,44 203.338235,43.5147059 C203.5,43.0294118 203.5,42.5441176 203.5,41.7352941 C203.5,36.0735294 202.852941,30.7352941 201.558824,25.5588235 C201.397059,24.9117647 201.235294,24.5882353 201.235294,24.4264706 C201.235294,24.2647059 201.235294,24.1029412 201.397059,24.1029412 C201.558824,24.1029412 201.882353,23.9411765 202.205882,23.9411765 L206.735294,23.9411765 C207.058824,23.9411765 207.382353,24.1029412 207.544118,24.2647059 C207.705882,24.4264706 207.867647,24.9117647 208.029412,25.5588235 C208.352941,27.3382353 208.514706,29.9264706 208.676471,33.4852941 C208.838235,37.0441176 209,40.6029412 209,44.4852941 C209,47.8823529 209,50.7941176 208.838235,53.7058824 C208.676471,56.4558824 208.514706,58.5588235 208.352941,60.1764706 C208.352941,60.1764706 208.352941,60.3382353 208.352941,60.5 C208.191176,61.7941176 207.544118,62.4411765 206.573529,62.4411765 L201.720588,62.4411765 C201.397059,62.4411765 201.235294,62.4411765 201.073529,62.2794118 C200.911765,62.2794118 200.75,62.1176471 200.75,61.9558824 C200.75,61.9558824 200.426471,60.9852941 199.941176,59.2058824 C199.455882,57.4264706 198.808824,55.4852941 198.161765,53.5441176 C196.544118,48.8529412 194.764706,44.6470588 192.661765,41.25 C190.720588,37.8529412 189.264706,36.0735294 188.455882,36.0735294 C188.132353,36.0735294 187.808824,36.3970588 187.647059,36.8823529 C187.485294,37.3676471 187.323529,38.1764706 187.323529,39.3088235 C187.323529,46.4264706 187.970588,53.2205882 189.426471,59.6911765 C189.588235,60.6617647 189.75,61.1470588 189.75,61.3088235 C189.75,61.6323529 189.588235,61.9558824 189.426471,62.1176471 C189.426471,62.1176471 189.102941,62.1176471 188.455882,62.1176471" id="Shape" fill="#EE7100"></path>
                <path d="M173.25,35.2647059 C173.25,36.0735294 172.764706,37.2058824 172.441176,37.8529412 C171.632353,39.6323529 169.367647,42.0588235 167.911765,43.1911765 C167.264706,43.6764706 166.617647,44.3235294 165.970588,44.3235294 C165.647059,44.3235294 164.676471,43.8382353 164.352941,43.6764706 C161.764706,42.2205882 158.852941,38.3382353 158.852941,34.9411765 C158.852941,34.7794118 159.014706,34.4558824 159.014706,34.2941176 C159.338235,33.9705882 160.308824,33.4852941 160.794118,33.4852941 C161.117647,33.4852941 161.926471,33.6470588 162.25,33.8088235 C164.191176,34.7794118 165,35.9117647 166.132353,37.8529412 C166.294118,37.8529412 166.294118,37.6911765 166.294118,37.5294118 C166.617647,36.8823529 167.426471,35.75 167.911765,35.2647059 C169.044118,34.2941176 170.176471,33.3235294 171.632353,33.3235294 C172.441176,33.4852941 173.25,34.1323529 173.25,35.2647059 M179.073529,51.2794118 C179.073529,46.2647059 178.588235,41.8970588 177.617647,38.1764706 C176.647059,34.6176471 175.029412,31.3823529 172.764706,28.4705882 C171.632353,26.8529412 170.338235,25.7205882 169.205882,24.75 C168.073529,23.7794118 167.102941,23.2941176 166.294118,23.2941176 C165.323529,23.2941176 163.867647,24.1029412 161.926471,25.7205882 C159.985294,27.3382353 158.205882,29.2794118 156.588235,31.7058824 C154.647059,34.6176471 153.029412,37.8529412 152.058824,41.25 C151.088235,44.6470588 150.441176,48.2058824 150.441176,51.7647059 C150.441176,55.1617647 150.602941,57.75 151.088235,59.5294118 C151.573529,61.3088235 152.220588,62.2794118 153.029412,62.2794118 L159.823529,62.2794118 C160.147059,62.2794118 160.308824,62.2794118 160.470588,62.1176471 C160.632353,62.1176471 160.632353,61.9558824 160.632353,61.7941176 C160.632353,61.6323529 160.147059,60.6617647 159.176471,58.7205882 C158.205882,56.7794118 157.720588,54.8382353 157.720588,53.2205882 C157.720588,52.25 157.882353,51.2794118 158.367647,50.7941176 C158.852941,50.1470588 159.661765,49.6617647 160.794118,49.1764706 C161.926471,48.8529412 163.220588,48.5294118 164.514706,48.2058824 C165.970588,47.8823529 167.264706,47.8823529 168.397059,47.8823529 C169.529412,47.8823529 170.5,48.0441176 170.823529,48.5294118 C171.308824,49.0147059 171.470588,49.8235294 171.470588,50.9558824 C171.470588,53.5441176 170.661765,56.7794118 169.205882,60.5 C168.882353,61.3088235 168.720588,61.7941176 168.720588,61.9558824 C168.720588,62.1176471 168.882353,62.1176471 169.044118,62.2794118 C169.205882,62.2794118 169.529412,62.4411765 170.014706,62.4411765 L175.838235,62.4411765 C176.485294,62.4411765 176.970588,62.4411765 177.294118,62.2794118 C177.617647,62.1176471 177.779412,61.7941176 177.941176,61.3088235 C178.102941,60.6617647 178.426471,59.2058824 178.588235,57.4264706 C178.911765,55.1617647 179.073529,53.2205882 179.073529,51.2794118" id="Shape" fill="#EE7100"></path>
                <path d="M34.9411765,42.3823529 C34.9411765,38.6617647 35.2647059,34.6176471 36.0735294,30.5735294 C34.7794118,29.4411765 32.1911765,27.1764706 29.2794118,24.9117647 C29.1176471,25.2352941 29.1176471,25.7205882 28.9558824,26.3676471 C28.4705882,29.2794118 28.1470588,32.5147059 27.9852941,36.2352941 C27.5,39.7941176 27.5,43.6764706 27.5,47.8823529 C27.5,51.2794118 27.6617647,54.0294118 27.6617647,56.2941176 C27.8235294,58.5588235 28.1470588,60.1764706 28.4705882,61.1470588 C28.6323529,61.6323529 28.7941176,61.7941176 28.9558824,61.9558824 C29.1176471,62.1176471 29.6029412,62.1176471 30.25,62.1176471 L35.5882353,62.1176471 C36.0735294,62.1176471 36.3970588,62.1176471 36.5588235,61.9558824 C36.7205882,61.7941176 36.8823529,61.6323529 36.8823529,61.4705882 C36.8823529,61.1470588 36.7205882,60.5 36.5588235,59.3676471 C35.4264706,53.5441176 34.9411765,47.8823529 34.9411765,42.3823529 Z" id="Shape" fill="#EE7100"></path>
                <path d="M22.8088235,5.5 C21.8382353,5.5 21.0294118,5.66176471 20.2205882,5.98529412 C16.9852941,7.44117647 15.8529412,9.54411765 16.8235294,12.4558824 C17.6323529,14.7205882 20.3823529,16.5 23.6176471,18.4411765 C25.2352941,19.4117647 27.1764706,20.7058824 28.9558824,22 C32.8382353,24.9117647 36.0735294,27.8235294 37.5294118,29.1176471 C38.8235294,27.6617647 41.7352941,23.4558824 46.2647059,14.5588235 C49.8235294,7.60294118 50.3088235,2.42647059 47.8823529,0.970588235 C45.6176471,-0.323529412 41.0882353,1.29411765 38.9852941,4.20588235 C37.0441176,6.95588235 35.5882353,11.4852941 35.5882353,11.4852941 L35.1029412,13.1029412 L33.9705882,11.8088235 C33.9705882,11.8088235 30.7352941,8.41176471 29.1176471,7.11764706 C27.8235294,6.47058824 25.2352941,5.5 22.8088235,5.5 Z" id="Shape" fill="#94C11C"></path>
            </g>
        </g>
    </g>
</svg>