<?xml version="1.0" encoding="utf-8"?>
<!-- Generator: Adobe Illustrator 23.0.2, SVG Export Plug-In . SVG Version: 6.00 Build 0)  -->
<svg version="1.1" id="Ebene_1" xmlns="http://www.w3.org/2000/svg" xmlns:xlink="http://www.w3.org/1999/xlink" x="0px" y="0px"
	 viewBox="0 0 159 85" style="enable-background:new 0 0 159 85;" xml:space="preserve">
<style type="text/css">
	.st0{fill-rule:evenodd;clip-rule:evenodd;fill:#003C82;}
	.st1{fill-rule:evenodd;clip-rule:evenodd;fill:#878786;}
</style>
<title>Logo Gropper</title>
<desc>Created with Sketch.</desc>
<g id="Symbols">
	<g id="Header" transform="translate(-166.000000, -17.000000)">
		<g id="Logo-Gropper" transform="translate(166.000000, 17.000000)">
			<g id="Group-17" transform="translate(0.270042, 0.338170)">
				<path id="Fill-1" class="st0" d="M105.9,54.1v-6.3l0.5,0c2.6,0,3.8,0.5,3.8,3c0,2.7-1.2,3.2-3.8,3.2L105.9,54.1z M116.9,50.9
					c0-5.6-3.3-8.4-9.8-8.4h-7.7v26.3h6.6v-9.4h1.8C113.6,59.4,116.9,56.4,116.9,50.9L116.9,50.9z"/>
				<polygon id="Fill-3" class="st0" points="134.6,48 134.6,42.5 119.5,42.5 119.5,68.8 134.6,68.8 134.6,63.3 126.1,63.3 
					126.1,57.8 134.3,57.8 134.3,52.2 126.1,52.2 126.1,48 				"/>
				<path id="Fill-5" class="st0" d="M85.7,54.1v-6.3l0.5,0c3.2,0,3.8,1.1,3.8,3c0,2.7-1.2,3.2-3.8,3.2L85.7,54.1z M96.7,50.9
					c0-5.6-3.3-8.4-9.8-8.4h-7.7v26.3h6.6v-9.4h1.8C93.4,59.4,96.7,56.4,96.7,50.9L96.7,50.9z"/>
				<path id="Fill-7" class="st0" d="M145.4,54l-0.6,0v-6.3l0.5,0c2.1,0.1,3.5,0.6,3.5,3C149,53,147.9,53.9,145.4,54L145.4,54z
					 M158.2,68.8L150.6,58l0.6-0.3c3.2-1.3,4.3-4.7,4.3-7.1c0-7.1-6-8.2-9.5-8.2h-7.7v26.3h6.6v-8.4l5.3,8.4H158.2z"/>
				<path id="Fill-9" class="st0" d="M35.9,54l-0.6,0v-6.3l0.5,0c2.1,0.1,3.5,0.6,3.5,3C39.4,53,38.4,53.9,35.9,54L35.9,54z
					 M41.7,57.8c3.2-1.3,4.3-4.7,4.3-7.1c0-7.1-6-8.2-9.5-8.2h-7.7v26.3h6.6v-8.3l5.3,8.3h7.9L41,58L41.7,57.8z"/>
				<path id="Fill-11" class="st0" d="M25.9,55.5v-1.3H13.2v5.3h5.6l-0.2,0.7c-0.7,2.2-2.8,3.7-5.1,3.7c-2,0-3.8-0.9-5-2.5
					c-1.1-1.5-1.7-3.5-1.7-5.6c0-4,2.3-8.3,6.7-8.3c2.2,0,4.3,1.4,5.4,3.6l0.3,0.7l5.8-3l-0.3-0.5c-2.1-4-6.2-6.3-11-6.3
					c-4,0-7.4,1.5-9.9,4.2C1.3,48.6,0,52,0,55.7c0,8.9,6.8,13.7,13.2,13.7c4.1,0,7.4-1.5,9.6-4.3C24.8,62.7,25.9,59.3,25.9,55.5"/>
				<path id="Fill-13" class="st0" d="M67.5,60.7c-1.4,1.7-3.2,2.6-4.9,2.6c-1.7,0-3.5-1-4.9-2.6c-1.3-1.6-2.1-3.6-2.1-5.3
					c0-4.1,3.2-7.5,7-7.5c3.8,0,7,3.4,7,7.5C69.6,57.2,68.8,59.2,67.5,60.7 M62.5,41.8c-6.8,0-13.7,5.2-13.7,13.8
					c0,3.7,1.4,7.1,3.8,9.7c2.5,2.7,6.1,4.1,9.9,4.1c3.9,0,7.4-1.5,9.9-4.1c2.5-2.6,3.8-6,3.8-9.7C76.3,48.8,71.1,41.8,62.5,41.8"/>
				<path id="Fill-15" class="st1" d="M89.8,26.2c-3.7,0-7.4,0.4-10.9,1.1c-4.9-1.4-14-3.5-24.5-3.5c-14.8,0-29.7,6.9-29.7,6.9
					s16.9-4,30-4c7.6,0,15.9,0.6,21.5,1.1c-9.2,2-16.1,5.3-16.1,5.3s16.9-3.6,30-3.6c13.1,0,28.8,4.8,28.8,4.8s-6.1-3.7-14.9-6.1
					c3.2-0.5,7.1-0.9,10.6-0.9c7.5,0,16.6,2.8,16.6,2.8s-7.7-4.6-16.7-4.7c-4.6,0-10.7,1.2-13.1,2.1C97.8,26.7,93.9,26.2,89.8,26.2
					 M65.2,21.5l-7.6-1.7l8,0.5C65.5,20.7,65.3,21.1,65.2,21.5 M67.3,17.3l-7.5-4.6l8.4,3.5C67.9,16.5,67.6,16.9,67.3,17.3
					 M70.4,14.2l-6.2-7.5l7.5,6.6C71.2,13.6,70.8,13.9,70.4,14.2 M74,12.2l-3.7-9.8l5.3,9.3C75,11.8,74.5,12,74,12.2 M77.7,11.3
					L77.4,0.4l2,10.8C78.7,11.2,78.2,11.2,77.7,11.3 M81.5,11.4l3.2-10.6l-1.6,11C82.7,11.6,82.1,11.4,81.5,11.4 M85.2,12.4l6.4-8.9
					l-5,9.7C86.2,12.9,85.7,12.7,85.2,12.4 M88.6,14.5l8.7-6.1l-7.5,7.2C89.4,15.2,89,14.9,88.6,14.5 M91.4,17.6l9.6-2.8l-8.8,4.1
					C92,18.5,91.7,18,91.4,17.6 M93.4,21.7l9.1,0.4L93.7,23C93.6,22.6,93.5,22.1,93.4,21.7 M92.2,23.3c-4.5,0.1-8.9,0.6-13.1,1.4
					c-3.1-0.9-7.4-1.9-12.4-2.8c1.6-5.4,6.6-9.4,12.6-9.4C85.8,12.6,91.1,17.2,92.2,23.3"/>
			</g>
			<g id="Group-48" transform="translate(0.000000, 76.000000)">
				<path id="Fill-21" class="st0" d="M2.9,6.5c1,0,1.6-0.9,1.6-2.1c0-1.1-0.5-2.1-1.6-2.1c-1,0-1.6,1-1.6,2.1
					C1.3,5.5,1.9,6.5,2.9,6.5L2.9,6.5z M5.3,8.1C4.5,7.9,3.8,7.7,3.1,7.4c-0.1,0-0.2-0.1-0.4-0.1c-1.3-0.1-2.5-1-2.5-2.9
					c0-1.8,1.1-3,2.7-3c1.6,0,2.6,1.3,2.6,2.9c0,1.4-0.6,2.3-1.5,2.6v0c0.5,0.1,1,0.3,1.5,0.3L5.3,8.1z"/>
				<path id="Fill-23" class="st0" d="M9.6,1.5v3.3c0,1.1,0.5,1.6,1.2,1.6c0.8,0,1.2-0.5,1.2-1.6V1.5h1v3.3c0,1.8-0.9,2.5-2.3,2.5
					c-1.3,0-2.2-0.7-2.2-2.5V1.5H9.6z"/>
				<path id="Fill-25" class="st0" d="M18.9,4.8l-0.4-1.4c-0.1-0.3-0.2-0.7-0.3-1.1h0C18.1,2.6,18,3,17.9,3.4l-0.4,1.4H18.9z
					 M17.3,5.6l-0.5,1.6h-1.1l1.8-5.7h1.3l1.8,5.7h-1.1l-0.5-1.6H17.3z"/>
				<polygon id="Fill-27" class="st0" points="23.7,1.5 24.7,1.5 24.7,6.3 27,6.3 27,7.2 23.7,7.2 				"/>
				<polygon id="Fill-29" class="st0" points="30,7.2 31,7.2 31,1.5 30,1.5 				"/>
				<polygon id="Fill-31" class="st0" points="35.5,2.4 33.9,2.4 33.9,1.5 38.2,1.5 38.2,2.4 36.5,2.4 36.5,7.2 35.5,7.2 				"/>
				<path id="Fill-32" class="st0" d="M43.3,1.1c-0.3,0-0.5-0.2-0.5-0.5c0-0.3,0.2-0.5,0.5-0.5c0.3,0,0.5,0.2,0.5,0.5
					C43.8,0.9,43.6,1.1,43.3,1.1L43.3,1.1z M43.2,4.8l-0.4-1.4c-0.1-0.3-0.2-0.7-0.3-1.1h0c-0.1,0.3-0.2,0.7-0.3,1.1l-0.4,1.4H43.2z
					 M41.7,1.1c-0.3,0-0.5-0.2-0.5-0.5c0-0.3,0.2-0.5,0.5-0.5c0.3,0,0.5,0.2,0.5,0.5C42.2,0.9,42,1.1,41.7,1.1L41.7,1.1z M41.5,5.6
					L41,7.2H40l1.8-5.7h1.3L45,7.2h-1.1l-0.5-1.6H41.5z"/>
				<polygon id="Fill-33" class="st0" points="48.3,2.4 46.7,2.4 46.7,1.5 51,1.5 51,2.4 49.4,2.4 49.4,7.2 48.3,7.2 				"/>
				<path id="Fill-34" class="st0" d="M59.6,2.1c-0.4,0-0.6,0.3-0.6,0.7c0,0.3,0.2,0.6,0.4,0.9c0.5-0.3,0.8-0.6,0.8-1
					C60.2,2.4,60,2.1,59.6,2.1L59.6,2.1z M59.5,6.5c0.4,0,0.7-0.2,0.9-0.4c-0.3-0.4-0.9-1-1.4-1.6c-0.3,0.2-0.6,0.5-0.6,1
					C58.4,6.1,58.8,6.5,59.5,6.5L59.5,6.5z M61.4,7.2c-0.1-0.1-0.3-0.3-0.4-0.5c-0.4,0.4-1,0.6-1.6,0.6c-1.3,0-1.9-0.8-1.9-1.6
					c0-0.8,0.4-1.3,1.1-1.7v0c-0.3-0.3-0.5-0.7-0.5-1.1c0-0.7,0.5-1.5,1.6-1.5c0.8,0,1.4,0.5,1.4,1.3c0,0.6-0.3,1.1-1.2,1.5l0,0
					c0.4,0.5,0.8,1,1.1,1.3c0.2-0.4,0.4-0.9,0.5-1.5h0.9c-0.2,0.9-0.4,1.6-0.9,2.1c0.3,0.3,0.6,0.7,1,1.1H61.4z"/>
				<polygon id="Fill-35" class="st0" points="69.3,7.2 70.4,7.2 70.4,1.5 69.3,1.5 				"/>
				<path id="Fill-36" class="st0" d="M74.8,6.4c0.1,0,0.4,0,0.6,0c1.3,0,2.1-0.7,2.1-2.2c0-1.3-0.7-2-2-2c-0.3,0-0.6,0-0.7,0.1V6.4
					z M73.7,1.6c0.5-0.1,1-0.1,1.7-0.1c1.1,0,1.8,0.2,2.3,0.7c0.5,0.4,0.9,1.1,0.9,2.1c0,1-0.3,1.8-0.9,2.3
					c-0.6,0.5-1.5,0.8-2.6,0.8c-0.6,0-1.1,0-1.4-0.1V1.6z"/>
				<polygon id="Fill-37" class="st0" points="84.8,4.7 82.7,4.7 82.7,6.3 85.1,6.3 85.1,7.2 81.6,7.2 81.6,1.5 85,1.5 85,2.3 
					82.7,2.3 82.7,3.8 84.8,3.8 				"/>
				<polygon id="Fill-38" class="st0" points="91.3,4.7 89.2,4.7 89.2,6.3 91.6,6.3 91.6,7.2 88.2,7.2 88.2,1.5 91.5,1.5 91.5,2.3 
					89.2,2.3 89.2,3.8 91.3,3.8 				"/>
				<path id="Fill-39" class="st0" d="M94.7,7.2V1.5h1.2l1.5,2.5c0.4,0.6,0.7,1.3,1,1.9h0c-0.1-0.8-0.1-1.5-0.1-2.4v-2h1v5.7h-1.1
					l-1.5-2.5c-0.4-0.6-0.7-1.3-1-2l0,0c0,0.7,0.1,1.5,0.1,2.4v2H94.7z"/>
				<path id="Fill-40" class="st0" d="M106.5,6.1c0.3,0.2,0.8,0.4,1.4,0.4c0.7,0,1-0.3,1-0.8c0-0.4-0.3-0.7-1-0.9
					c-0.9-0.3-1.5-0.8-1.5-1.7c0-0.9,0.8-1.6,2-1.6c0.6,0,1.1,0.1,1.4,0.3l-0.3,0.8c-0.2-0.1-0.6-0.3-1.1-0.3
					c-0.7,0-0.9,0.4-0.9,0.7c0,0.4,0.3,0.6,1.1,0.9c1,0.4,1.5,0.9,1.5,1.7c0,0.9-0.7,1.7-2.2,1.7c-0.6,0-1.2-0.2-1.5-0.4L106.5,6.1z
					"/>
				<polygon id="Fill-41" class="st0" points="116.2,4.7 114.1,4.7 114.1,6.3 116.5,6.3 116.5,7.2 113,7.2 113,1.5 116.3,1.5 
					116.3,2.3 114.1,2.3 114.1,3.8 116.2,3.8 				"/>
				<polygon id="Fill-42" class="st0" points="119.6,7.2 120.6,7.2 120.6,1.5 119.6,1.5 				"/>
				<polygon id="Fill-43" class="st0" points="125,2.4 123.4,2.4 123.4,1.5 127.7,1.5 127.7,2.4 126.1,2.4 126.1,7.2 125,7.2 				
					"/>
				<polygon id="Fill-44" class="st0" points="135.9,2.6 135.9,2.6 134.8,3.1 134.7,2.4 136,1.7 136.9,1.7 136.9,7.2 135.9,7.2 				
					"/>
				<path id="Fill-45" class="st0" d="M142.8,2.4c-0.5,0-0.9,0.5-0.9,1.1c0,0.6,0.3,1,0.9,1c0.4,0,0.7-0.2,0.9-0.5
					c0-0.1,0.1-0.2,0.1-0.3C143.8,3,143.5,2.4,142.8,2.4L142.8,2.4z M141.4,6.5c0.2,0,0.3,0,0.6,0c0.4,0,0.8-0.2,1.1-0.4
					c0.4-0.3,0.6-0.7,0.7-1.2l0,0c-0.3,0.3-0.7,0.5-1.2,0.5c-1,0-1.7-0.7-1.7-1.7c0-1.1,0.8-2,2-2c1.3,0,2,1,2,2.3
					c0,1.2-0.4,2-1,2.6c-0.5,0.4-1.1,0.7-1.9,0.8c-0.2,0-0.5,0-0.6,0V6.5z"/>
				<path id="Fill-46" class="st0" d="M147.6,7.2V6.6l0.6-0.6c1.3-1.2,1.9-1.9,1.9-2.6c0-0.5-0.3-0.9-1-0.9c-0.5,0-0.9,0.2-1.2,0.5
					l-0.3-0.7c0.4-0.3,1-0.6,1.7-0.6c1.2,0,1.8,0.8,1.8,1.7c0,1-0.7,1.7-1.6,2.6l-0.5,0.4v0h2.3v0.9H147.6z"/>
				<path id="Fill-47" class="st0" d="M156.2,2.4c-0.5,0-0.9,0.5-0.9,1.1c0,0.6,0.3,1,0.9,1c0.4,0,0.7-0.2,0.9-0.5
					c0-0.1,0.1-0.2,0.1-0.3C157.1,3,156.9,2.4,156.2,2.4L156.2,2.4z M154.7,6.5c0.2,0,0.3,0,0.6,0c0.4,0,0.8-0.2,1.1-0.4
					c0.4-0.3,0.6-0.7,0.7-1.2l0,0c-0.3,0.3-0.7,0.5-1.2,0.5c-1,0-1.7-0.7-1.7-1.7c0-1.1,0.8-2,2-2c1.3,0,2,1,2,2.3
					c0,1.2-0.4,2-1,2.6c-0.5,0.4-1.1,0.7-1.9,0.8c-0.2,0-0.5,0-0.6,0V6.5z"/>
			</g>
		</g>
	</g>
</g>
</svg>
