<svg xmlns="http://www.w3.org/2000/svg" viewBox="0 0 240.537 50"><path d="M14.8,47.747V37.781l5.631,1.858,2.252-2.027c7.264-6.531,10.361-11.655,10.361-17.567,0-6.588-3.041-13.176-6.757-18.694L25.387,0a70.717,70.717,0,0,0-11.43,7.151A7.318,7.318,0,0,0,6.581.676L2.752,4.955v.9c3.885,0,5.18,2.7,5.18,5.743V30.124L2.978,28.941a1.183,1.183,0,0,0-1.127.675L-.4,33v.9c2.365.45,5.293,1.127,8.333,1.915V48.873C7.932,49.662,8.5,50,9.284,50Zm0-34.571c0-3.435,3.378-5.406,5.35-6.25l1.52,2.646c2.365,4.166,4.5,8.5,4.5,13.626a14.454,14.454,0,0,1-3.829,10.247l-.676.676c-1.97-.676-4.279-1.464-6.869-2.2ZM37.1,29.054c0,6.7,3.547,10.135,8.332,10.585a69.947,69.947,0,0,0,9.46-7.207l-.338-.675a1.591,1.591,0,0,0-1.577-1.126,30.9,30.9,0,0,1-5.743,3.041,4.367,4.367,0,0,1-3.548-3.66l8.953-6.25c1.183-.845,2.028-1.408,2.028-3.266l-5.406-8.558-.9.224C41.6,13.851,37.1,17.736,37.1,23.873Zm6.193-9.8A2.163,2.163,0,0,1,44.418,17l.45-.225,3.83,5.968-5.406,4.167ZM67.166,39.865l4.618-3.716v-.9L68.855,33.9a1.3,1.3,0,0,1-.9-1.351V18.693h3.6a1.033,1.033,0,0,0,1.126-1.125V14.077H67.729V7.207a.8.8,0,0,0-.9-.9H64.012c-.395,5.293-2.308,8.277-5.631,10.021v1.014c0,.731.226,1.351,1.127,1.351h1.8V36.485c0,.788.057,1.014.9,1.352Zm9.347-10.811c0,6.7,3.547,10.135,8.334,10.585A70.148,70.148,0,0,0,94.3,32.432l-.338-.675a1.589,1.589,0,0,0-1.576-1.126,30.99,30.99,0,0,1-5.744,3.041,4.364,4.364,0,0,1-3.547-3.66l8.953-6.25c1.182-.845,2.026-1.408,2.026-3.266l-5.405-8.558-.9.224c-6.757,1.689-11.262,5.574-11.262,11.711Zm6.194-9.8A2.164,2.164,0,0,1,83.832,17l.45-.225,3.828,5.968-5.4,4.167Zm23.986-3.66-2.478-2.759a2.263,2.263,0,0,0-1.8-.9l-4.729,4.278v.9l2.251,1.8c.338.281.452.45.452,1.127v16.44c0,.788.056,1.014.9,1.352l4.955,2.027,4.617-3.716v-.9L107.931,33.9a1.26,1.26,0,0,1-.9-1.351V18.976c1.071.844,2.14,1.8,3.153,2.759a2.117,2.117,0,0,0,1.8-.9l3.378-3.717v-.9l-3.6-3.378c-.619-.619-.957-.9-1.576-.9Zm9.119,18.863c5.237,0,7.433,4.73,10.812,5.406a35.824,35.824,0,0,0,6.756-3.38c3.267-1.97,5.406-4.39,5.406-7.432a6.935,6.935,0,0,0-11.938-5.292l-3.378-5.181a9.259,9.259,0,0,1,1.577-1.8,9.447,9.447,0,0,0,5.4,1.913c2.928,0,5.912-2.2,7.1-5.631l.225-.675h-3.04a4.134,4.134,0,0,1-3.379,1.914,5.99,5.99,0,0,1-3.828-1.689l-1.126-.9a29.518,29.518,0,0,0-9.234,8.672l3.941,6.193c1.07,1.746,1.8,2.477,3.378,2.477l4.5-2.589,1.127.675c1.689,1.069,2.478,2.2,2.478,3.829,0,1.97-1.633,3.491-3.491,4.166-2.929-.9-4.73-4.392-7.433-4.392a4.164,4.164,0,0,0-2.139.676l-3.717,2.139Zm35.022,5.406,4.616-3.716v-.9L152.525,33.9a1.3,1.3,0,0,1-.9-1.351V18.693h3.6a1.034,1.034,0,0,0,1.127-1.125V14.077H151.4V7.207a.8.8,0,0,0-.9-.9h-2.816c-.394,5.293-2.308,8.277-5.63,10.021v1.014c0,.731.225,1.351,1.126,1.351h1.8V36.485c0,.788.056,1.014.9,1.352Zm32.32-3.942v-.9c-3.659,0-4.28-1.014-4.28-4.054v-15.2l-8.67-3.828a17.766,17.766,0,0,0-3.378,2.027c-4.448,3.378-7.883,7.826-7.883,13.739,0,5.855,2.929,10.19,6.757,11.936a26.886,26.886,0,0,0,6.982-4.392,5.727,5.727,0,0,0,5.969,4.618Zm-10.811-4.392a19.542,19.542,0,0,1-3.828,2.364,12.534,12.534,0,0,1-3.6-8.67c0-2.984,1.294-6.588,3.491-8.39l3.941,1.972Zm20.5,8.334,4.618-3.716v-.9L194.528,33.9a1.3,1.3,0,0,1-.9-1.351V4.28h-.9l-7.77,2.928v.9l2.026,3.83V36.485c0,.788.057,1.014.9,1.352Zm8.446-10.811c0,6.7,3.548,10.135,8.334,10.585a70.063,70.063,0,0,0,9.458-7.207l-.336-.675a1.591,1.591,0,0,0-1.577-1.126,30.989,30.989,0,0,1-5.744,3.041,4.365,4.365,0,0,1-3.547-3.66l8.953-6.25c1.182-.845,2.026-1.408,2.026-3.266l-5.4-8.558-.9.224c-6.757,1.689-11.262,5.574-11.262,11.711Zm6.194-9.8A2.164,2.164,0,0,1,208.6,17l.452-.225,3.828,5.968-5.405,4.167Zm23.986-3.66-2.478-2.759a2.263,2.263,0,0,0-1.8-.9l-4.73,4.278v.9l2.251,1.8c.339.281.452.45.452,1.127v16.44c0,.788.055,1.014.9,1.352l4.955,2.027,4.618-3.716v-.9L232.7,33.9a1.259,1.259,0,0,1-.9-1.351V18.976c1.07.844,2.139,1.8,3.152,2.759a2.115,2.115,0,0,0,1.8-.9l3.378-3.717v-.9l-3.6-3.378c-.619-.619-.957-.9-1.576-.9Z" transform="translate(0.401)" fill="#1a1a1a"/></svg>